<?xml version="1.0" standalone="no"?>
<!DOCTYPE svg PUBLIC "-//W3C//DTD SVG 20010904//EN"
 "http://www.w3.org/TR/2001/REC-SVG-20010904/DTD/svg10.dtd">
<svg version="1.0" xmlns="http://www.w3.org/2000/svg"
 width="512.000000pt" height="512.000000pt" viewBox="0 0 512.000000 512.000000"
 preserveAspectRatio="xMidYMid meet">
<metadata>
Created by potrace 1.14, written by Peter Selinger 2001-2017
</metadata>
<g transform="translate(0.000000,512.000000) scale(0.100000,-0.100000)"
fill="#000000" stroke="none">
<path d="M2325 5089 c-570 -55 -1106 -302 -1517 -698 -228 -220 -382 -429
-523 -712 -127 -256 -208 -525 -247 -819 -16 -122 -16 -488 0 -610 65 -489
267 -957 570 -1320 727 -870 1927 -1157 2969 -709 435 186 836 520 1102 919
215 320 349 672 408 1070 21 144 24 520 4 660 -83 598 -334 1098 -757 1510
-192 187 -382 323 -621 446 -410 210 -922 307 -1388 263z m1763 -2449 l647 0
-345 -345 -346 -345 -301 0 -302 0 -5 -42 c-3 -24 -7 -73 -10 -111 l-5 -67
237 0 237 -1 -396 -392 c-422 -418 -455 -446 -619 -510 -142 -56 -163 -57
-1019 -57 l-786 0 345 345 345 345 390 0 c226 0 405 4 424 10 51 14 99 66 116
125 30 102 34 262 35 1255 l0 1006 353 352 352 352 3 -960 2 -960 648 0z"/>
</g>
</svg>
